<svg width="504" height="80" viewBox="0 0 504 80" fill="none" xmlns="http://www.w3.org/2000/svg">
<path d="M50.5762 50.1205L57.1665 29.8794H74.0242L80.6145 9.63525H63.7538H43.5245H26.6638L20.0765 29.8794H36.9342L30.3469 50.1205H10.1147L3.52734 70.3647H23.7567H43.9889H64.2182L70.8085 50.1205H50.5762Z" fill="black"/>
<path d="M142.184 43.3735H121.955L124.151 36.6264H141.008L147.599 16.3823H130.738L132.934 9.63525H112.704L110.509 16.3823H93.648L87.0606 36.6264H103.918L101.723 43.3735H81.4933L74.9031 63.6176H95.1353L92.9366 70.3647H113.169L115.365 63.6176H135.594L142.184 43.3735Z" fill="black"/>
<path d="M227.073 51.0235C247.558 51.0235 269.571 34.4088 276.241 13.9117L297.473 10.5382C297.173 11.6559 296.841 12.7794 296.473 13.9117C286.162 45.5882 252.143 71.2647 220.485 71.2647C219.354 71.2647 218.24 71.2323 217.146 71.1676L227.076 51.0235H227.073Z" fill="black"/>
<path d="M258.216 23.047L245.574 32.5882L235.927 18.2764L248.569 8.7323L258.216 23.047Z" fill="black"/>
<path d="M213.598 24.3735L193.351 29.1323L197.643 15.7823H163.037L158.642 29.2765H212.593L213.839 25.4441L213.598 24.3735Z" fill="black"/>
<path d="M213.766 36.0234H153.075L148.684 49.5176H185.553C178.234 57.644 167.684 63.1176 157.64 63.1176C155.35 63.1176 153.219 62.8323 151.267 62.297L146.785 76.0705C148.828 76.4264 150.985 76.6117 153.246 76.6117C170.921 76.6117 189.636 65.2999 200.333 49.5176H209.374L213.766 36.0234Z" fill="black"/>
<path d="M201.176 12.1706L196.705 26.0823L210.859 22.7558L208.251 10.5088L201.176 12.1706Z" fill="black"/>
<path d="M212.522 7.57055L216.57 25.5441L229.877 17.1764L219.174 3.38525L212.522 7.57055Z" fill="black"/>
<mask id="path-9-inside-1_215_4294" fill="white">
<path d="M309 3.40796H503.861V76.592H309V3.40796Z"/>
</mask>
<path d="M310 76.592V3.40796H308V76.592H310Z" fill="black" mask="url(#path-9-inside-1_215_4294)"/>
<path d="M466.549 33.328H470.101V36.304H472.549V33.328H481.957V36.304H484.885V39.232H487.861V60.592H484.405V39.76H481.429V36.784H473.029V39.76H470.101V60.592H466.549V33.328Z" fill="black"/>
<path d="M445.573 54.592H442.549V39.232H445.573V36.304H448.549V33.328H457.957V36.304H460.885V39.232H463.861V48.688H446.101V54.112H449.029V57.04H457.429V54.112H460.405V51.136H463.861V54.592H460.885V57.568H457.957V60.592H448.549V57.568H445.573V54.592ZM460.405 45.184V39.76H457.429V36.784H449.029V39.76H446.101V45.184H460.405Z" fill="black"/>
<path d="M421.573 54.5919H418.549V39.2319H421.573V36.3039H424.549V33.3279H433.957V36.3039H436.405V24.3999H439.861V60.5919H436.405V57.5679H433.957V60.5919H424.549V57.5679H421.573V54.5919ZM425.029 54.1119V57.0399H433.429V54.1119H436.405V39.7599H433.429V36.7839H425.029V39.7599H422.101V54.1119H425.029Z" fill="black"/>
<path d="M408.869 30.208C406.853 30.208 405.349 29.712 404.357 28.72C403.397 27.728 402.917 26.432 402.917 24.832C402.917 23.264 403.397 21.968 404.357 20.944C405.349 19.92 406.853 19.408 408.869 19.408C410.789 19.408 412.261 19.936 413.285 20.992C414.309 22.016 414.821 23.296 414.821 24.832C414.821 26.432 414.325 27.728 413.333 28.72C412.341 29.712 410.853 30.208 408.869 30.208ZM403.301 59.248C403.525 54.096 403.637 49.84 403.637 46.48C403.637 42.48 403.509 38 403.253 33.04H414.773C414.517 37.808 414.389 42.288 414.389 46.48C414.389 50 414.501 54.256 414.725 59.248H403.301Z" fill="black"/>
<path d="M400.513 32.9919L388.609 43.8399C392.673 49.5999 396.465 54.7359 399.985 59.2479H387.265L384.817 55.3119C383.217 52.6559 382.161 50.9279 381.649 50.1279L377.665 53.7759V59.2479H366.625C366.881 53.1679 367.009 47.0079 367.009 40.7679C367.009 34.4959 366.881 28.2079 366.625 21.9039H377.665V42.2559C380.769 39.0879 383.697 35.9999 386.449 32.9919H400.513Z" fill="black"/>
<path d="M336.328 50.4639C348.488 50.3999 357.304 50.2239 362.776 49.9359C362.552 51.2479 362.408 52.6079 362.344 54.0159C362.312 55.3919 362.296 57.1359 362.296 59.2479H325C325.256 53.0399 325.384 47.2319 325.384 41.8239C325.384 36.4159 325.256 30.6079 325 24.3999H362.296V33.0879H336.328V37.6959C337.864 37.7279 340.136 37.7439 343.144 37.7439C348.232 37.7439 353.496 37.6479 358.936 37.4559V45.7119C353.496 45.5199 348.232 45.4239 343.144 45.4239C340.136 45.4239 337.864 45.4399 336.328 45.4719V50.4639Z" fill="black"/>
</svg>
