<?xml version="1.0" encoding="UTF-8"?>
<svg id="Layer_1" xmlns="http://www.w3.org/2000/svg" version="1.1" xmlns:xlink="http://www.w3.org/1999/xlink" viewBox="0 0 504 80">
  <!-- Generator: Adobe Illustrator 29.3.1, SVG Export Plug-In . SVG Version: 2.1.0 Build 151)  -->
  <defs>
    <style>
      .st0 {
        fill: #fff;
      }

      .st1 {
        mask: url(#mask);
      }

      .st2 {
        fill: #e2ff04;
      }
    </style>
    <mask id="mask" x="308" y="3.4" width="195.9" height="73.2" maskUnits="userSpaceOnUse">
      <g id="path-9-inside-1_215_4261">
        <path class="st0" d="M309,3.4h194.9v73.2h-194.9V3.4Z"/>
      </g>
    </mask>
  </defs>
  <path class="st2" d="M50.6,50.1l6.6-20.2h16.9l6.6-20.2H26.7l-6.6,20.2h16.9l-6.6,20.2H10.1l-6.6,20.2h60.7l6.6-20.2h-20.2Z"/>
  <path class="st2" d="M142.2,43.4h-20.2l2.2-6.7h16.9l6.6-20.2h-16.9l2.2-6.7h-20.2l-2.2,6.7h-16.9l-6.6,20.2h16.9l-2.2,6.7h-20.2l-6.6,20.2h20.2l-2.2,6.7h20.2l2.2-6.7h20.2l6.6-20.2Z"/>
  <path class="st2" d="M227.1,51c20.5,0,42.5-16.6,49.2-37.1l21.2-3.4c-.3,1.1-.6,2.2-1,3.4-10.3,31.7-44.3,57.4-76,57.4s-2.2,0-3.3,0l9.9-20.1h0Z"/>
  <path class="st2" d="M258.2,23l-12.6,9.5-9.6-14.3,12.6-9.5,9.6,14.3Z"/>
  <path class="st2" d="M213.6,24.4l-20.2,4.8,4.3-13.4h-34.6l-4.4,13.5h54l1.2-3.8-.2-1.1Z"/>
  <path class="st2" d="M213.8,36h-60.7l-4.4,13.5h36.9c-7.3,8.1-17.9,13.6-27.9,13.6s-4.4-.3-6.4-.8l-4.5,13.8c2,.4,4.2.5,6.5.5,17.7,0,36.4-11.3,47.1-27.1h9l4.4-13.5Z"/>
  <path class="st2" d="M201.2,12.2l-4.5,13.9,14.2-3.3-2.6-12.2-7.1,1.7Z"/>
  <path class="st2" d="M212.5,7.6l4,18,13.3-8.4-10.7-13.8-6.7,4.2Z"/>
  <g class="st1">
    <path class="st2" d="M310,76.6V3.4h-2v73.2h2Z"/>
  </g>
  <path class="st2" d="M466.5,33.3h3.6v3h2.4v-3h9.4v3h2.9v2.9h3v21.4h-3.5v-20.8h-3v-3h-8.4v3h-2.9v20.8h-3.6v-27.3Z"/>
  <path class="st2" d="M445.6,54.6h-3v-15.4h3v-2.9h3v-3h9.4v3h2.9v2.9h3v9.5h-17.8v5.4h2.9v2.9h8.4v-2.9h3v-3h3.5v3.5h-3v3h-2.9v3h-9.4v-3h-3v-3ZM460.4,45.2v-5.4h-3v-3h-8.4v3h-2.9v5.4h14.3Z"/>
  <path class="st2" d="M421.6,54.6h-3v-15.4h3v-2.9h3v-3h9.4v3h2.4v-11.9h3.5v36.2h-3.5v-3h-2.4v3h-9.4v-3h-3v-3ZM425,54.1v2.9h8.4v-2.9h3v-14.4h-3v-3h-8.4v3h-2.9v14.4h2.9Z"/>
  <path class="st2" d="M408.9,30.2c-2,0-3.5-.5-4.5-1.5-1-1-1.4-2.3-1.4-3.9s.5-2.9,1.4-3.9c1-1,2.5-1.5,4.5-1.5s3.4.5,4.4,1.6c1,1,1.5,2.3,1.5,3.8s-.5,2.9-1.5,3.9c-1,1-2.5,1.5-4.5,1.5ZM403.3,59.2c.2-5.2.3-9.4.3-12.8s-.1-8.5-.4-13.4h11.5c-.3,4.8-.4,9.2-.4,13.4s.1,7.8.3,12.8h-11.4Z"/>
  <path class="st2" d="M400.5,33l-11.9,10.8c4.1,5.8,7.9,10.9,11.4,15.4h-12.7l-2.4-3.9c-1.6-2.7-2.7-4.4-3.2-5.2l-4,3.6v5.5h-11c.3-6.1.4-12.2.4-18.5s-.1-12.6-.4-18.9h11v20.4c3.1-3.2,6-6.3,8.8-9.3h14.1Z"/>
  <path class="st2" d="M336.3,50.5c12.2,0,21-.2,26.4-.5-.2,1.3-.4,2.7-.4,4.1,0,1.4,0,3.1,0,5.2h-37.3c.3-6.2.4-12,.4-17.4s-.1-11.2-.4-17.4h37.3v8.7h-26v4.6c1.5,0,3.8,0,6.8,0,5.1,0,10.4,0,15.8-.3v8.3c-5.4-.2-10.7-.3-15.8-.3s-5.3,0-6.8,0v5Z"/>
</svg>